<?xml version="1.0" standalone="no"?>
<!DOCTYPE svg PUBLIC "-//W3C//DTD SVG 20010904//EN"
 "http://www.w3.org/TR/2001/REC-SVG-20010904/DTD/svg10.dtd">
<svg version="1.0" xmlns="http://www.w3.org/2000/svg"
 width="626.000000pt" height="626.000000pt" viewBox="0 0 626.000000 626.000000"
 preserveAspectRatio="xMidYMid meet">
<metadata>
Created by potrace 1.16, written by Peter Selinger 2001-2019
</metadata>
<g transform="translate(0.000000,626.000000) scale(0.100000,-0.100000)"
fill="#000000" stroke="none">
<path d="M2232 4837 c-13 -14 -24 -42 -28 -73 -8 -65 -25 -90 -71 -104 -60
-19 -83 -38 -83 -66 0 -31 50 -84 79 -84 18 0 19 -5 14 -54 -5 -49 -4 -54 16
-61 12 -4 21 -15 21 -27 0 -18 5 -19 58 -15 31 2 66 7 77 9 20 5 45 -7 45 -22
0 -4 -14 -7 -31 -6 -18 0 -34 -4 -36 -11 -4 -12 29 -19 147 -28 l75 -6 28 101
c25 94 27 128 8 115 -5 -2 -19 -45 -32 -96 l-23 -91 -29 6 c-16 3 -40 6 -53 6
-17 0 -24 6 -24 19 0 10 -10 42 -21 70 -20 48 -21 53 -5 69 23 26 20 41 -15
98 -36 56 -45 64 -78 64 -20 0 -22 4 -17 26 17 64 18 84 7 84 -6 0 -11 9 -11
20 0 11 6 20 13 20 7 0 18 9 25 21 10 16 19 19 39 14 23 -5 25 -4 14 9 -21 25
-83 20 -109 -7z"/>
<path d="M3546 4498 c-3 -50 -6 -243 -6 -430 l0 -338 345 0 346 0 -3 -354 -3
-355 56 -24 57 -25 0 -51 c0 -42 -4 -54 -22 -63 -11 -6 -25 -17 -29 -24 -4 -8
-15 -14 -22 -14 -8 0 -15 -9 -15 -20 0 -13 -5 -18 -14 -14 -13 5 -15 -30 -16
-235 0 -154 -5 -250 -12 -266 -24 -53 -44 -55 -451 -55 -352 0 -375 -1 -371
-17 5 -17 34 -18 432 -18 l427 0 3 -42 3 -43 -460 0 c-436 0 -461 1 -461 18 0
11 -7 18 -20 18 -15 0 -18 -5 -14 -18 5 -17 -8 -18 -208 -20 -117 0 -219 -1
-225 -1 -7 1 -10 -3 -7 -8 3 -5 -28 -10 -68 -11 l-73 -1 80 -8 c44 -4 403 -6
798 -6 l719 2 24 28 24 28 0 287 c1 272 2 286 18 267 9 -11 59 -53 110 -93 50
-41 92 -79 92 -85 0 -7 -7 -59 -15 -117 -8 -58 -15 -110 -15 -117 0 -15 62
-33 118 -33 41 0 42 -1 42 -34 0 -54 8 -67 31 -53 15 9 24 9 40 -2 25 -15 17
-23 85 92 43 72 46 82 40 125 -10 73 -45 204 -61 228 -20 30 -91 46 -122 26
-18 -11 -28 -11 -68 2 -25 9 -53 16 -61 16 -9 0 -46 18 -83 40 -53 31 -76 54
-109 103 l-41 62 -1 443 0 442 247 2 c137 1 268 2 293 3 l45 0 3 428 2 427
-698 0 -699 0 -7 -92z m476 -107 c37 -14 96 -86 108 -132 15 -55 5 -108 -32
-164 -38 -57 -95 -88 -163 -88 -50 0 -125 29 -141 54 -4 7 10 28 36 52 42 40
42 40 26 68 -20 34 -20 52 -1 93 16 34 62 66 83 59 8 -3 10 1 6 11 -3 9 -11
16 -18 16 -6 0 -4 4 4 10 12 7 11 10 -5 17 -19 7 -18 8 5 14 26 8 54 5 92 -10z
m696 -18 c51 -25 107 -85 109 -118 1 -20 -2 -24 -8 -14 -7 11 -9 11 -9 1 0 -7
-7 -20 -15 -29 -8 -8 -13 -20 -10 -26 3 -7 0 -3 -7 7 -35 52 -73 86 -112 101
-41 16 -42 18 -43 62 -1 45 -1 45 29 39 16 -3 46 -14 66 -23z m-138 -42 l0
-48 -40 -6 c-50 -6 -80 -26 -117 -73 -39 -52 -39 -133 -1 -191 l27 -40 -33
-32 -32 -31 -22 22 c-38 41 -62 108 -62 176 0 151 104 257 268 271 8 1 12 -15
12 -48z m189 -312 c17 -6 31 -13 31 -15 0 -14 -32 -63 -57 -85 -50 -47 -143
-83 -143 -55 0 8 6 17 13 19 6 3 3 6 -8 6 -17 1 -18 3 -5 11 12 8 12 12 2 18
-9 6 0 14 29 27 22 11 52 34 66 52 29 37 28 37 72 22z m-551 -146 c3 -10 -59
-13 -287 -13 -253 0 -291 2 -291 15 0 13 36 15 287 13 218 -2 287 -6 291 -15z
m0 -65 c-4 -10 -73 -14 -291 -16 -251 -2 -287 0 -287 13 0 13 38 15 291 15
228 0 290 -3 287 -12z"/>
<path d="M2540 4269 c9 -16 7 -44 -10 -122 -38 -181 -37 -178 -65 -165 -14 6
-27 9 -30 6 -9 -8 7 -117 19 -133 9 -13 15 -13 38 -3 25 12 28 18 28 64 0 28
11 97 25 153 35 140 41 187 25 206 -7 8 -19 15 -27 15 -11 0 -11 -4 -3 -21z"/>
<path d="M2122 3603 c-2 -199 -4 -233 -17 -233 -8 0 -15 -4 -15 -10 0 -5 6
-10 14 -10 8 0 17 -8 19 -17 4 -17 5 -17 6 0 1 16 23 17 321 17 207 0 320 4
320 10 0 6 -113 10 -320 10 l-320 0 -3 233 -2 232 -3 -232z"/>
<path d="M3295 3351 c-54 -23 -74 -86 -58 -189 l8 -53 35 30 c31 25 35 34 34
72 -1 39 3 47 37 74 45 35 48 52 13 65 -30 12 -42 12 -69 1z"/>
<path d="M2790 2883 l0 -168 -75 -145 c-41 -80 -76 -152 -77 -159 -4 -22 77
-50 143 -50 95 -1 90 -19 92 327 1 196 -2 302 -8 302 -5 1 0 6 13 14 30 16 14
31 -45 41 l-43 7 0 -169z"/>
<path d="M1380 2962 c0 -26 7 -57 15 -69 12 -17 15 -70 17 -284 l3 -263 50 3
c27 1 53 5 57 7 3 2 6 110 5 239 -1 129 1 235 6 235 16 0 6 19 -13 25 l-20 6
20 26 c14 18 20 41 20 74 l0 49 -80 0 -80 0 0 -48z"/>
<path d="M870 2604 l0 -256 138 3 137 4 3 -252 2 -253 100 0 100 0 0 -250 0
-250 140 0 141 0 -1 229 c-1 167 -5 231 -13 235 -7 2 -3 5 8 5 43 2 -10 21
-60 21 -27 0 -74 3 -102 6 l-53 7 -2 246 -3 246 -110 3 c-116 2 -156 8 -154
20 1 4 1 12 0 17 -1 6 -1 115 -1 243 l1 232 -136 0 -135 0 0 -256z"/>
<path d="M2375 2548 c-82 -28 -152 -52 -154 -54 -2 -2 4 -21 13 -41 20 -44 86
-124 86 -105 0 6 5 12 10 12 6 0 10 -5 10 -12 0 -6 10 -23 23 -36 12 -14 15
-21 7 -17 -10 5 -8 1 4 -13 22 -25 31 -28 23 -8 -4 11 4 11 46 -2 36 -10 52
-11 55 -4 2 7 15 9 31 6 l28 -6 12 94 c13 89 24 263 14 206 -2 -16 -8 -28 -13
-28 -5 0 -11 -19 -13 -42 -3 -38 -4 -36 -5 14 -2 58 -9 89 -21 87 -3 0 -73
-23 -156 -51z"/>
<path d="M3149 2520 c-18 -22 -35 -37 -39 -35 -10 6 -45 -46 -42 -62 2 -7 -6
-18 -16 -24 -11 -7 -17 -19 -15 -28 4 -14 -26 -50 -84 -103 -11 -10 -27 -18
-37 -18 -9 0 -14 -4 -11 -10 3 -5 -2 -10 -12 -11 -13 -1 -11 -3 7 -9 25 -8 25
-8 -5 -11 -16 -2 65 -6 180 -9 116 -3 212 -1 214 3 1 5 -15 25 -37 45 -34 32
-41 45 -47 92 -3 30 -5 64 -4 75 5 48 -2 145 -11 145 -5 0 -23 -18 -41 -40z"/>
<path d="M4552 2047 l-52 -52 40 -103 c22 -56 40 -107 40 -112 0 -4 -13 -11
-30 -15 -24 -5 -30 -12 -30 -33 -1 -30 -21 -62 -39 -62 -14 0 -5 87 11 107 5
7 4 23 -4 44 -13 30 -16 16 -53 -232 -51 -346 -49 -329 -37 -329 12 0 18 17
27 83 l6 47 169 0 168 0 7 -60 c6 -55 18 -80 31 -67 3 3 -2 47 -10 98 -47 284
-47 288 -40 492 6 179 5 197 -10 197 -9 0 -25 9 -36 20 -11 11 -20 16 -20 11
0 -5 7 -16 15 -24 21 -21 23 -42 30 -264 l6 -203 -26 0 c-14 0 -38 -11 -53
-25 -25 -23 -34 -25 -120 -25 l-92 0 6 43 c10 70 5 67 109 67 57 0 95 4 95 10
0 6 -17 10 -37 10 -34 0 -38 3 -40 28 -1 15 3 32 8 38 5 6 7 19 3 28 -5 13 0
16 25 16 17 0 31 5 31 10 0 6 -15 10 -34 10 -28 0 -34 4 -40 28 -3 15 -8 37
-12 49 -5 20 -2 22 37 25 63 5 62 26 -3 30 -50 3 -53 5 -62 36 -8 28 -6 37 15
60 77 86 78 97 1 19z m202 -558 c3 -17 6 -42 6 -55 l0 -24 -165 0 -164 0 5 33
c14 85 -3 77 163 77 l149 0 6 -31z"/>
<path d="M2020 1918 c-35 -19 -111 -21 -152 -3 -23 9 -24 -24 -3 -65 9 -17 11
-30 6 -30 -5 0 -7 -8 -4 -19 3 -10 0 -22 -6 -25 -13 -8 -14 -365 -3 -483 8
-76 14 -89 47 -95 18 -3 20 4 25 67 5 63 7 70 28 73 19 3 22 -1 22 -26 0 -28
4 -31 50 -41 59 -13 110 -14 110 -3 0 4 -21 23 -47 42 -44 33 -45 35 -22 41
21 6 9 14 -14 10 -5 -1 -6 3 -2 9 3 6 10 8 15 5 4 -3 7 3 5 12 -10 51 -13 96
-6 85 4 -7 6 69 4 169 -2 136 0 186 9 197 10 13 10 14 1 8 -10 -5 -13 6 -13
43 0 28 -3 50 -7 50 -5 -1 -24 -10 -43 -21z"/>
<path d="M4040 1402 c0 -79 47 -122 110 -101 39 14 50 36 50 98 l0 51 -80 0
-80 0 0 -48z"/>
</g>
</svg>
